<?xml version="1.0" encoding="UTF-8"?>
<svg version="1.1" xmlns="http://www.w3.org/2000/svg" width="1400" height="1400">
<path d="M0 0 C5.28 0 10.56 0 16 0 C16 0.66 16 1.32 16 2 C16.66 2 17.32 2 18 2 C18 2.66 18 3.32 18 4 C18.66 4 19.32 4 20 4 C20 4.99 20 5.98 20 7 C20.66 7 21.32 7 22 7 C22 8.32 22 9.64 22 11 C22.66 11 23.32 11 24 11 C24 12.32 24 13.64 24 15 C24.66 15 25.32 15 26 15 C26 16.32 26 17.64 26 19 C26.66 19 27.32 19 28 19 C31 25.5 31 25.5 31 30 C31.66 30 32.32 30 33 30 C33 31.32 33 32.64 33 34 C33.66 34 34.32 34 35 34 C35 35.32 35 36.64 35 38 C35.66 38 36.32 38 37 38 C37 38.99 37 39.98 37 41 C37.66 41 38.32 41 39 41 C39 42.32 39 43.64 39 45 C39.66 45 40.32 45 41 45 C41 46.98 41 48.96 41 51 C45.62 51 50.24 51 55 51 C55 50.34 55 49.68 55 49 C59.95 49 64.9 49 70 49 C70 48.34 70 47.68 70 47 C76.27 47 82.54 47 89 47 C89 46.34 89 45.68 89 45 C99.23 45 109.46 45 120 45 C120 44.34 120 43.68 120 43 C143.76 43 167.52 43 192 43 C192 43.66 192 44.32 192 45 C201.57 45 211.14 45 221 45 C221 45.66 221 46.32 221 47 C227.93 47 234.86 47 242 47 C242 47.66 242 48.32 242 49 C246.95 49 251.9 49 257 49 C257 49.66 257 50.32 257 51 C260.96 51 264.92 51 269 51 C269 50.34 269 49.68 269 49 C269.66 49 270.32 49 271 49 C271 47.02 271 45.04 271 43 C271.66 43 272.32 43 273 43 C273 42.01 273 41.02 273 40 C273.66 40 274.32 40 275 40 C275 38.68 275 37.36 275 36 C275.66 36 276.32 36 277 36 C277 34.68 277 33.36 277 32 C277.66 32 278.32 32 279 32 C279 30.68 279 29.36 279 28 C279.66 28 280.32 28 281 28 C281.33 25.69 281.66 23.38 282 21 C282.66 21 283.32 21 284 21 C284 19.68 284 18.36 284 17 C284.66 17 285.32 17 286 17 C286 15.68 286 14.36 286 13 C286.66 13 287.32 13 288 13 C288 11.68 288 10.36 288 9 C288.66 9 289.32 9 290 9 C290 7.68 290 6.36 290 5 C290.66 5 291.32 5 292 5 C292 4.01 292 3.02 292 2 C292.66 2 293.32 2 294 2 C294 1.34 294 0.68 294 0 C298.62 0 303.24 0 308 0 C308 0.66 308 1.32 308 2 C311.63 2 315.26 2 319 2 C319 2.66 319 3.32 319 4 C319.64066406 3.98839844 320.28132812 3.97679687 320.94140625 3.96484375 C326.08653222 3.91116881 330.93024924 4.11830422 336 5 C336 5.66 336 6.32 336 7 C336.95712891 6.98259766 336.95712891 6.98259766 337.93359375 6.96484375 C338.75988281 6.95582031 339.58617187 6.94679688 340.4375 6.9375 C341.26121094 6.92589844 342.08492187 6.91429687 342.93359375 6.90234375 C345 7 345 7 346 8 C348.32817964 8.36760731 350.6618385 8.70241581 353 9 C353 9.66 353 10.32 353 11 C355.64 11 358.28 11 361 11 C361 11.66 361 12.32 361 13 C363.64 13 366.28 13 369 13 C369 13.66 369 14.32 369 15 C371.31 15 373.62 15 376 15 C376 15.66 376 16.32 376 17 C377.98 17 379.96 17 382 17 C382 17.66 382 18.32 382 19 C384.31 19 386.62 19 389 19 C389 19.66 389 20.32 389 21 C389.86882813 21.04898437 390.73765625 21.09796875 391.6328125 21.1484375 C392.78523437 21.22320312 393.93765625 21.29796875 395.125 21.375 C396.26195312 21.44460938 397.39890625 21.51421875 398.5703125 21.5859375 C401.95393616 21.99443876 404.81612441 22.80967569 408 24 C408 24.66 408 25.32 408 26 C409.98 26 411.96 26 414 26 C414 26.66 414 27.32 414 28 C415.98 28 417.96 28 420 28 C420 28.66 420 29.32 420 30 C421.65 30 423.3 30 425 30 C425 30.66 425 31.32 425 32 C426.98 32 428.96 32 431 32 C431 32.66 431 33.32 431 34 C432.98 34 434.96 34 437 34 C437 34.66 437 35.32 437 36 C438.65 36 440.3 36 442 36 C442 36.66 442 37.32 442 38 C443.32 38 444.64 38 446 38 C446 38.66 446 39.32 446 40 C446.74765625 40.04898438 447.4953125 40.09796875 448.265625 40.1484375 C449.25046875 40.22320312 450.2353125 40.29796875 451.25 40.375 C452.22453125 40.44460938 453.1990625 40.51421875 454.203125 40.5859375 C456.89633189 40.98465249 458.66963279 41.63507063 461 43 C461 43.66 461 44.32 461 45 C462.98 45 464.96 45 467 45 C467 45.66 467 46.32 467 47 C468.32 47 469.64 47 471 47 C471 47.66 471 48.32 471 49 C472.98 49 474.96 49 477 49 C477 49.66 477 50.32 477 51 C477.99 51 478.98 51 480 51 C480 51.66 480 52.32 480 53 C481.32 53 482.64 53 484 53 C484 53.66 484 54.32 484 55 C485.98 55 487.96 55 490 55 C490 55.66 490 56.32 490 57 C492.31 57.33 494.62 57.66 497 58 C497 58.66 497 59.32 497 60 C498.32 60 499.64 60 501 60 C501 60.66 501 61.32 501 62 C502.32 62 503.64 62 505 62 C505 63.32 505 64.64 505 66 C505.66 66 506.32 66 507 66 C507 66.66 507 67.32 507 68 C507.66 68 508.32 68 509 68 C509 69.32 509 70.64 509 72 C509.66 72 510.32 72 511 72 C511 72.66 511 73.32 511 74 C511.66 74 512.32 74 513 74 C513.33 75.65 513.66 77.3 514 79 C514.66 79 515.32 79 516 79 C516 80.32 516 81.64 516 83 C516.66 83 517.32 83 518 83 C518 83.66 518 84.32 518 85 C518.66 85 519.32 85 520 85 C520 86.32 520 87.64 520 89 C520.66 89 521.32 89 522 89 C522 89.66 522 90.32 522 91 C522.66 91 523.32 91 524 91 C531 101.18181818 531 101.18181818 531 106 C531.66 106 532.32 106 533 106 C533 107.32 533 108.64 533 110 C533.66 110 534.32 110 535 110 C535 110.99 535 111.98 535 113 C535.66 113 536.32 113 537 113 C537 113.66 537 114.32 537 115 C537.66 115 538.32 115 539 115 C539 116.32 539 117.64 539 119 C539.66 119 540.32 119 541 119 C541 120.32 541 121.64 541 123 C541.66 123 542.32 123 543 123 C543 123.66 543 124.32 543 125 C543.66 125 544.32 125 545 125 C545 126.32 545 127.64 545 129 C545.66 129 546.32 129 547 129 C547.99 131.97 548.98 134.94 550 138 C550.66 138 551.32 138 552 138 C552 139.32 552 140.64 552 142 C552.66 142 553.32 142 554 142 C554 143.32 554 144.64 554 146 C554.66 146 555.32 146 556 146 C556 146.99 556 147.98 556 149 C556.66 149 557.32 149 558 149 C558 150.32 558 151.64 558 153 C558.66 153 559.32 153 560 153 C560 154.32 560 155.64 560 157 C560.66 157 561.32 157 562 157 C562 157.66 562 158.32 562 159 C562.66 159 563.32 159 564 159 C564 160.32 564 161.64 564 163 C564.66 163 565.32 163 566 163 C566.33 165.31 566.66 167.62 567 170 C567.66 170 568.32 170 569 170 C569 171.32 569 172.64 569 174 C569.66 174 570.32 174 571 174 C571 175.32 571 176.64 571 178 C571.66 178 572.32 178 573 178 C573 179.32 573 180.64 573 182 C573.66 182 574.32 182 575 182 C575 182.99 575 183.98 575 185 C575.66 185 576.32 185 577 185 C577 186.32 577 187.64 577 189 C577.66 189 578.32 189 579 189 C579 190.98 579 192.96 579 195 C579.66 195 580.32 195 581 195 C581 196.32 581 197.64 581 199 C581.66 199 582.32 199 583 199 C583.33 201.31 583.66 203.62 584 206 C584.66 206 585.32 206 586 206 C586 207.32 586 208.64 586 210 C586.66 210 587.32 210 588 210 C588 211.98 588 213.96 588 216 C588.66 216 589.32 216 590 216 C591.4606285 218.64738916 592 219.89448334 592 223 C592.66 223 593.32 223 594 223 C594 224.98 594 226.96 594 229 C594.66 229 595.32 229 596 229 C596 230.32 596 231.64 596 233 C596.66 233 597.32 233 598 233 C598.73463894 235.20391682 599.46873509 237.40798223 600.19921875 239.61328125 C600.83922342 241.52080736 601.50851799 243.41849755 602.1875 245.3125 C603 248 603 248 603 252 C603.66 252 604.32 252 605 252 C605 253.65 605 255.3 605 257 C605.66 257 606.32 257 607 257 C607 258.98 607 260.96 607 263 C607.66 263 608.32 263 609 263 C609 264.32 609 265.64 609 267 C609.66 267 610.32 267 611 267 C612.42258812 270.82320557 613.24042276 273.91281305 613 278 C613.66 278 614.32 278 615 278 C615 279.98 615 281.96 615 284 C615.66 284 616.32 284 617 284 C617 285.98 617 287.96 617 290 C617.66 290 618.32 290 619 290 C620.10228696 294.40914783 620.07654536 298.48382401 620 303 C620.66 303 621.32 303 622 303 C623.42258812 306.82320557 624.24042276 309.91281305 624 314 C624.66 314 625.32 314 626 314 C626 316.64 626 319.28 626 322 C626.66 322 627.32 322 628 322 C628 323.65 628 325.3 628 327 C628.66 327 629.32 327 630 327 C630 329.64 630 332.28 630 335 C630.66 335 631.32 335 632 335 C632 337.64 632 340.28 632 343 C632.66 343 633.32 343 634 343 C634 345.31 634 347.62 634 350 C634.66 350 635.32 350 636 350 C636 352.64 636 355.28 636 358 C636.66 358 637.32 358 638 358 C638.33 363.61 638.66 369.22 639 375 C639.66 375 640.32 375 641 375 C641 377.97 641 380.94 641 384 C641.66 384 642.32 384 643 384 C643 387.96 643 391.92 643 396 C643.66 396 644.32 396 645 396 C645 398.97 645 401.94 645 405 C645.66 405 646.32 405 647 405 C647 409.29 647 413.58 647 418 C647.66 418 648.32 418 649 418 C649 422.62 649 427.24 649 432 C649.66 432 650.32 432 651 432 C651 436.95 651 441.9 651 447 C651.66 447 652.32 447 653 447 C653 452.61 653 458.22 653 464 C653.66 464 654.32 464 655 464 C655.83971733 480.73656833 656.14956729 497.42762483 656.1328125 514.18359375 C656.13348918 516.6228893 656.13446221 519.06218478 656.13571167 521.5014801 C656.13717183 526.57301486 656.13508916 531.6445318 656.13037109 536.71606445 C656.12467797 543.14075612 656.12796108 549.56540595 656.13394356 555.99009609 C656.1375977 561.01540936 656.13638853 566.04071309 656.13381577 571.06602669 C656.13315968 573.43174304 656.1339274 575.79746033 656.13629532 578.16317558 C656.14877944 594.13258344 655.76209671 610.04840652 655 626 C654.34 626 653.68 626 653 626 C653 628.31 653 630.62 653 633 C652.34 633 651.68 633 651 633 C651 633.66 651 634.32 651 635 C649.68 635 648.36 635 647 635 C647 635.66 647 636.32 647 637 C646.34 637 645.68 637 645 637 C645 637.66 645 638.32 645 639 C644.34 639 643.68 639 643 639 C643 639.66 643 640.32 643 641 C641.68 641 640.36 641 639 641 C638.34 642.32 637.68 643.64 637 645 C636.01 645 635.02 645 634 645 C634 645.66 634 646.32 634 647 C632.02 647.33 630.04 647.66 628 648 C628 648.66 628 649.32 628 650 C627.34 650 626.68 650 626 650 C626 650.66 626 651.32 626 652 C624.68 652 623.36 652 622 652 C622 652.66 622 653.32 622 654 C621.34 654 620.68 654 620 654 C620 654.66 620 655.32 620 656 C619.01 656 618.02 656 617 656 C617 656.66 617 657.32 617 658 C616.34 658 615.68 658 615 658 C615 658.66 615 659.32 615 660 C613.68 660 612.36 660 611 660 C611 660.66 611 661.32 611 662 C610.34 662 609.68 662 609 662 C609 662.66 609 663.32 609 664 C607.02 664.33 605.04 664.66 603 665 C603 665.66 603 666.32 603 667 C602.01 667 601.02 667 600 667 C600 667.66 600 668.32 600 669 C599.34 669 598.68 669 598 669 C598 669.66 598 670.32 598 671 C596.68 671 595.36 671 594 671 C594 671.66 594 672.32 594 673 C592.68 673 591.36 673 590 673 C590 673.66 590 674.32 590 675 C589.34 675 588.68 675 588 675 C588 675.66 588 676.32 588 677 C586.68 677 585.36 677 584 677 C584 677.66 584 678.32 584 679 C583.01 679 582.02 679 581 679 C581 679.66 581 680.32 581 681 C579.02 681.33 577.04 681.66 575 682 C575 682.66 575 683.32 575 684 C573.68 684 572.36 684 571 684 C571 684.66 571 685.32 571 686 C569.68 686 568.36 686 567 686 C566.67 687.32 566.34 688.64 566 690 C564.68 690 563.36 690 562 690 C562 690.66 562 691.32 562 692 C560.68 692 559.36 692 558 692 C558 692.66 558 693.32 558 694 C556.68 694 555.36 694 554 694 C554 694.66 554 695.32 554 696 C552.68 696 551.36 696 550 696 C549.814375 696.639375 549.62875 697.27875 549.4375 697.9375 C548 700 548 700 544.375 700.75 C542.704375 700.87375 542.704375 700.87375 541 701 C541 701.66 541 702.32 541 703 C539.68 703 538.36 703 537 703 C537 703.66 537 704.32 537 705 C535.68 705 534.36 705 533 705 C533 705.66 533 706.32 533 707 C532.01 707 531.02 707 530 707 C530 707.66 530 708.32 530 709 C528.68 709 527.36 709 526 709 C526 709.66 526 710.32 526 711 C524.68 711 523.36 711 522 711 C522 711.66 522 712.32 522 713 C520.68 713 519.36 713 518 713 C518 713.66 518 714.32 518 715 C516.68 715 515.36 715 514 715 C514 715.66 514 716.32 514 717 C511.03 717.33 508.06 717.66 505 718 C505 718.66 505 719.32 505 720 C503.68 720 502.36 720 501 720 C501 720.66 501 721.32 501 722 C499.68 722 498.36 722 497 722 C497 722.66 497 723.32 497 724 C496.01 724 495.02 724 494 724 C494 724.66 494 725.32 494 726 C492.02 726 490.04 726 488 726 C488 726.66 488 727.32 488 728 C486.68 728 485.36 728 484 728 C484 728.66 484 729.32 484 730 C482.68 730 481.36 730 480 730 C480 730.66 480 731.32 480 732 C478.35 732 476.7 732 475 732 C475 732.66 475 733.32 475 734 C473.68 734 472.36 734 471 734 C471 734.66 471 735.32 471 736 C467.7 736.33 464.4 736.66 461 737 C461 737.66 461 738.32 461 739 C459.35 739 457.7 739 456 739 C456 739.66 456 740.32 456 741 C454.02 741 452.04 741 450 741 C450 741.66 450 742.32 450 743 C448.68 743 447.36 743 446 743 C446 743.66 446 744.32 446 745 C442.17679443 746.42258812 439.08718695 747.24042276 435 747 C435 747.66 435 748.32 435 749 C433.02 749 431.04 749 429 749 C429 749.66 429 750.32 429 751 C417.47835991 754.44419134 417.47835991 754.44419134 412 754 C412 754.66 412 755.32 412 756 C410.02 756 408.04 756 406 756 C406 756.66 406 757.32 406 758 C402.7 758 399.4 758 396 758 C396 757.34 396 756.68 396 756 C395.34 756 394.68 756 394 756 C394 755.34 394 754.68 394 754 C392.68 753.34 391.36 752.68 390 752 C390 751.01 390 750.02 390 749 C389.34 749 388.68 749 388 749 C387.67 747.02 387.34 745.04 387 743 C386.34 743 385.68 743 385 743 C385 742.34 385 741.68 385 741 C384.34 741 383.68 741 383 741 C383 739.68 383 738.36 383 737 C381.68 736.34 380.36 735.68 379 735 C379 734.01 379 733.02 379 732 C378.34 732 377.68 732 377 732 C377 731.34 377 730.68 377 730 C376.34 730 375.68 730 375 730 C375 728.68 375 727.36 375 726 C374.34 726 373.68 726 373 726 C373 725.34 373 724.68 373 724 C372.34 724 371.68 724 371 724 C370.67 722.02 370.34 720.04 370 718 C369.34 718 368.68 718 368 718 C368 717.01 368 716.02 368 715 C367.34 715 366.68 715 366 715 C366 714.34 366 713.68 366 713 C365.34 713 364.68 713 364 713 C364 711.68 364 710.36 364 709 C363.34 709 362.68 709 362 709 C362 707.68 362 706.36 362 705 C361.34 705 360.68 705 360 705 C360 704.34 360 703.68 360 703 C359.34 703 358.68 703 358 703 C356.5393715 700.35261084 356 699.10551666 356 696 C355.34 696 354.68 696 354 696 C353.67 693.36 353.34 690.72 353 688 C352.34 688 351.68 688 351 688 C351 687.34 351 686.68 351 686 C350.34 686 349.68 686 349 686 C349 684.68 349 683.36 349 682 C348.34 682 347.68 682 347 682 C347 681.01 347 680.02 347 679 C346.34 679 345.68 679 345 679 C345 677.68 345 676.36 345 675 C344.34 675 343.68 675 343 675 C343 672.69 343 670.38 343 668 C344.32 668 345.64 668 347 668 C347 667.34 347 666.68 347 666 C349.97 665.67 352.94 665.34 356 665 C356 664.34 356 663.68 356 663 C357.32 663 358.64 663 360 663 C360 662.34 360 661.68 360 661 C361.98 661 363.96 661 366 661 C366 660.34 366 659.68 366 659 C367.32 659 368.64 659 370 659 C370 658.34 370 657.68 370 657 C370.99 657 371.98 657 373 657 C373 656.34 373 655.68 373 655 C374.32 655 375.64 655 377 655 C377 654.34 377 653.68 377 653 C378.98 653 380.96 653 383 653 C383 652.34 383 651.68 383 651 C384.32 651 385.64 651 387 651 C387 650.34 387 649.68 387 649 C387.99 649 388.98 649 390 649 C390 648.34 390 647.68 390 647 C392.64 646.67 395.28 646.34 398 646 C398 645.34 398 644.68 398 644 C399.32 644 400.64 644 402 644 C402 643.34 402 642.68 402 642 C403.32 642 404.64 642 406 642 C406 641.34 406 640.68 406 640 C406.99 640 407.98 640 409 640 C409 639.34 409 638.68 409 638 C410.32 638 411.64 638 413 638 C413 637.34 413 636.68 413 636 C413.66 636 414.32 636 415 636 C415 635.34 415 634.68 415 634 C416.32 634 417.64 634 419 634 C419 633.34 419 632.68 419 632 C420.32 632 421.64 632 423 632 C423 630.68 423 629.36 423 628 C423 627.34 423 626.68 423 626 C421.68 626 420.36 626 419 626 C419 625.34 419 624.68 419 624 C418.34 624 417.68 624 417 624 C417 623.34 417 622.68 417 622 C416.34 622 415.68 622 415 622 C415 621.34 415 620.68 415 620 C413.68 620 412.36 620 411 620 C411 619.34 411 618.68 411 618 C410.34 618 409.68 618 409 618 C409 617.34 409 616.68 409 616 C408.01 616 407.02 616 406 616 C406 616.66 406 617.32 406 618 C405.01 618 404.02 618 403 618 C403 618.66 403 619.32 403 620 C401.68 620 400.36 620 399 620 C399 620.66 399 621.32 399 622 C397.02 622 395.04 622 393 622 C393 622.66 393 623.32 393 624 C391.68 624 390.36 624 389 624 C389 624.66 389 625.32 389 626 C388.01 626 387.02 626 386 626 C386 626.66 386 627.32 386 628 C382.7 628.33 379.4 628.66 376 629 C376 629.66 376 630.32 376 631 C374.02 631 372.04 631 370 631 C370 631.66 370 632.32 370 633 C369.01 633 368.02 633 367 633 C367 633.66 367 634.32 367 635 C365.02 635 363.04 635 361 635 C361 635.66 361 636.32 361 637 C359.02 637 357.04 637 355 637 C355 637.66 355 638.32 355 639 C353.35 639 351.7 639 350 639 C350 639.66 350 640.32 350 641 C348.02 641 346.04 641 344 641 C344 641.66 344 642.32 344 643 C342.02 643 340.04 643 338 643 C338 643.66 338 644.32 338 645 C336.35 645 334.7 645 333 645 C333 645.66 333 646.32 333 647 C328.23692563 647.95261487 323.8333472 648.08333357 319 648 C319 648.66 319 649.32 319 650 C317.35 650 315.7 650 314 650 C314 650.66 314 651.32 314 652 C311.36 652 308.72 652 306 652 C306 652.66 306 653.32 306 654 C304.865625 654.144375 303.73125 654.28875 302.5625 654.4375 C299.19222799 654.61171478 299.19222799 654.61171478 298 656 C295.66702567 656.04092937 293.33294775 656.04241723 291 656 C291 656.66 291 657.32 291 658 C287.7 658 284.4 658 281 658 C281 658.66 281 659.32 281 660 C278.69 660 276.38 660 274 660 C274 660.66 274 661.32 274 662 C273.21753906 662.06058594 272.43507813 662.12117187 271.62890625 662.18359375 C270.61699219 662.26738281 269.60507812 662.35117187 268.5625 662.4375 C267.55316406 662.51871094 266.54382813 662.59992187 265.50390625 662.68359375 C263.06359221 662.73211468 263.06359221 662.73211468 262 664 C254.6564425 665.10153363 247.41437534 665.1031366 240 665 C240 665.66 240 666.32 240 667 C235.05 667 230.1 667 225 667 C225 667.66 225 668.32 225 669 C218.73 669 212.46 669 206 669 C206 669.66 206 670.32 206 671 C194.78 671 183.56 671 172 671 C172 671.66 172 672.32 172 673 C161.44 673 150.88 673 140 673 C140 672.34 140 671.68 140 671 C128.12 671 116.24 671 104 671 C104 670.34 104 669.68 104 669 C97.73 669 91.46 669 85 669 C85 668.34 85 667.68 85 667 C80.71 667 76.42 667 72 667 C72 666.34 72 665.68 72 665 C71.18917969 665.01160156 70.37835937 665.02320313 69.54296875 665.03515625 C62.29433826 665.09422542 55.20367799 664.80842879 48 664 C48 663.34 48 662.68 48 662 C47.36191406 662.01160156 46.72382812 662.02320313 46.06640625 662.03515625 C44.82697266 662.04869141 44.82697266 662.04869141 43.5625 662.0625 C42.73878906 662.07410156 41.91507813 662.08570313 41.06640625 662.09765625 C39 662 39 662 38 661 C36.48530552 660.76807135 34.96245438 660.58784762 33.4375 660.4375 C32.61121094 660.35371094 31.78492188 660.26992188 30.93359375 660.18359375 C30.29550781 660.12300781 29.65742187 660.06242188 29 660 C29 659.34 29 658.68 29 658 C26.36 658 23.72 658 21 658 C21 657.34 21 656.68 21 656 C18.36 656 15.72 656 13 656 C13 655.34 13 654.68 13 654 C10.69 654 8.38 654 6 654 C6 653.34 6 652.68 6 652 C3.36 652 0.72 652 -2 652 C-2 651.34 -2 650.68 -2 650 C-4.31 650 -6.62 650 -9 650 C-9 649.34 -9 648.68 -9 648 C-9.78246094 647.93941406 -10.56492187 647.87882813 -11.37109375 647.81640625 C-12.38300781 647.73261719 -13.39492188 647.64882813 -14.4375 647.5625 C-15.44683594 647.48128906 -16.45617187 647.40007813 -17.49609375 647.31640625 C-20 647 -20 647 -21 646 C-23.32817964 645.63239269 -25.6618385 645.29758419 -28 645 C-28 644.34 -28 643.68 -28 643 C-29.98 643 -31.96 643 -34 643 C-34 642.34 -34 641.68 -34 641 C-35.98 641 -37.96 641 -40 641 C-40 640.34 -40 639.68 -40 639 C-40.99 639 -41.98 639 -43 639 C-43 638.34 -43 637.68 -43 637 C-44.98 637 -46.96 637 -49 637 C-49 636.34 -49 635.68 -49 635 C-50.98 635 -52.96 635 -55 635 C-55 634.34 -55 633.68 -55 633 C-55.99 633 -56.98 633 -58 633 C-58 632.34 -58 631.68 -58 631 C-59.98 631 -61.96 631 -64 631 C-64 630.34 -64 629.68 -64 629 C-64.60328125 628.95101562 -65.2065625 628.90203125 -65.828125 628.8515625 C-66.62734375 628.77679687 -67.4265625 628.70203125 -68.25 628.625 C-69.43335938 628.52058594 -69.43335938 628.52058594 -70.640625 628.4140625 C-73.085877 627.98492887 -74.84836903 627.21399362 -77 626 C-77 625.34 -77 624.68 -77 624 C-78.98 624 -80.96 624 -83 624 C-83 623.34 -83 622.68 -83 622 C-84.32 622 -85.64 622 -87 622 C-87 621.34 -87 620.68 -87 620 C-88.32 620 -89.64 620 -91 620 C-91 619.34 -91 618.68 -91 618 C-91.99 618 -92.98 618 -94 618 C-94 617.34 -94 616.68 -94 616 C-94.99 616 -95.98 616 -97 616 C-97 616.66 -97 617.32 -97 618 C-98.32 618 -99.64 618 -101 618 C-101 618.66 -101 619.32 -101 620 C-101.66 620 -102.32 620 -103 620 C-103 620.66 -103 621.32 -103 622 C-103.66 622 -104.32 622 -105 622 C-105 622.66 -105 623.32 -105 624 C-106.32 624 -107.64 624 -109 624 C-109 624.66 -109 625.32 -109 626 C-109.66 626 -110.32 626 -111 626 C-111 627.32 -111 628.64 -111 630 C-111 630.66 -111 631.32 -111 632 C-109.68 632 -108.36 632 -107 632 C-107 632.66 -107 633.32 -107 634 C-106.34 634 -105.68 634 -105 634 C-105 634.66 -105 635.32 -105 636 C-103.68 636 -102.36 636 -101 636 C-101 636.66 -101 637.32 -101 638 C-99.68 638 -98.36 638 -97 638 C-97 638.66 -97 639.32 -97 640 C-96.01 640 -95.02 640 -94 640 C-94 640.66 -94 641.32 -94 642 C-92.68 642 -91.36 642 -90 642 C-90 642.66 -90 643.32 -90 644 C-88.68 644 -87.36 644 -86 644 C-86 644.66 -86 645.32 -86 646 C-84.9275 646.12375 -83.855 646.2475 -82.75 646.375 C-79.62136385 646.89643936 -77.66519576 647.40088254 -75 649 C-75 649.66 -75 650.32 -75 651 C-73.68 651 -72.36 651 -71 651 C-71 651.66 -71 652.32 -71 653 C-69.68 653 -68.36 653 -67 653 C-67 653.66 -67 654.32 -67 655 C-65.02 655 -63.04 655 -61 655 C-61 655.66 -61 656.32 -61 657 C-60.01 657 -59.02 657 -58 657 C-58 657.66 -58 658.32 -58 659 C-56.68 659 -55.36 659 -54 659 C-54 659.66 -54 660.32 -54 661 C-52.02 661 -50.04 661 -48 661 C-48 661.66 -48 662.32 -48 663 C-46.68 663 -45.36 663 -44 663 C-44 663.66 -44 664.32 -44 665 C-41.03 665.33 -38.06 665.66 -35 666 C-35 666.66 -35 667.32 -35 668 C-33.68 668 -32.36 668 -31 668 C-31 669.65 -31 671.3 -31 673 C-31.66 673 -32.32 673 -33 673 C-33 674.32 -33 675.64 -33 677 C-33.66 677 -34.32 677 -35 677 C-35 678.32 -35 679.64 -35 681 C-35.66 681 -36.32 681 -37 681 C-37 681.99 -37 682.98 -37 684 C-37.66 684 -38.32 684 -39 684 C-39 685.32 -39 686.64 -39 688 C-39.66 688 -40.32 688 -41 688 C-41.33 689.98 -41.66 691.96 -42 694 C-42.66 694 -43.32 694 -44 694 C-44 695.32 -44 696.64 -44 698 C-44.66 698 -45.32 698 -46 698 C-46 698.99 -46 699.98 -46 701 C-46.66 701 -47.32 701 -48 701 C-48 702.32 -48 703.64 -48 705 C-48.66 705 -49.32 705 -50 705 C-50 705.66 -50 706.32 -50 707 C-50.66 707 -51.32 707 -52 707 C-52 708.32 -52 709.64 -52 711 C-52.66 711 -53.32 711 -54 711 C-54 711.66 -54 712.32 -54 713 C-54.66 713 -55.32 713 -56 713 C-56 714.32 -56 715.64 -56 717 C-56.66 717 -57.32 717 -58 717 C-58.33 718.65 -58.66 720.3 -59 722 C-59.66 722 -60.32 722 -61 722 C-61 723.32 -61 724.64 -61 726 C-61.66 726 -62.32 726 -63 726 C-63 726.66 -63 727.32 -63 728 C-63.66 728 -64.32 728 -65 728 C-65 729.32 -65 730.64 -65 732 C-65.66 732 -66.32 732 -67 732 C-67 732.66 -67 733.32 -67 734 C-67.66 734 -68.32 734 -69 734 C-69 734.99 -69 735.98 -69 737 C-69.66 737 -70.32 737 -71 737 C-71 737.66 -71 738.32 -71 739 C-71.66 739 -72.32 739 -73 739 C-73 740.32 -73 741.64 -73 743 C-73.66 743 -74.32 743 -75 743 C-75.309375 743.94875 -75.61875 744.8975 -75.9375 745.875 C-77 749 -77 749 -78 751 C-78.66 751 -79.32 751 -80 751 C-80 751.66 -80 752.32 -80 753 C-80.66 753 -81.32 753 -82 753 C-82 753.99 -82 754.98 -82 756 C-82.66 756 -83.32 756 -84 756 C-84 756.66 -84 757.32 -84 758 C-87.3 758 -90.6 758 -94 758 C-94 757.34 -94 756.68 -94 756 C-95.98 756 -97.96 756 -100 756 C-100 755.34 -100 754.68 -100 754 C-100.72445312 753.95101562 -101.44890625 753.90203125 -102.1953125 753.8515625 C-107.41458867 753.44793848 -112.09813658 752.98724193 -117 751 C-117 750.34 -117 749.68 -117 749 C-118.98 749 -120.96 749 -123 749 C-123 748.34 -123 747.68 -123 747 C-124.98 747 -126.96 747 -129 747 C-129 746.34 -129 745.68 -129 745 C-130.65 745 -132.3 745 -134 745 C-134 744.34 -134 743.68 -134 743 C-135.98 743 -137.96 743 -140 743 C-140 742.34 -140 741.68 -140 741 C-141.32 741 -142.64 741 -144 741 C-144 740.34 -144 739.68 -144 739 C-145.65 739 -147.3 739 -149 739 C-149 738.34 -149 737.68 -149 737 C-149.88751953 736.94392578 -149.88751953 736.94392578 -150.79296875 736.88671875 C-155.71125874 736.47752986 -158.82884341 735.78077106 -163 733 C-165.69254991 732.29329272 -165.69254991 732.29329272 -168 732 C-168 731.34 -168 730.68 -168 730 C-169.32 730 -170.64 730 -172 730 C-172 729.34 -172 728.68 -172 728 C-173.32 728 -174.64 728 -176 728 C-176 727.34 -176 726.68 -176 726 C-177.98 726 -179.96 726 -182 726 C-182 725.34 -182 724.68 -182 724 C-182.99 724 -183.98 724 -185 724 C-185 723.34 -185 722.68 -185 722 C-186.32 722 -187.64 722 -189 722 C-189 721.34 -189 720.68 -189 720 C-190.32 720 -191.64 720 -193 720 C-193 719.34 -193 718.68 -193 718 C-195.97 717.67 -198.94 717.34 -202 717 C-202 716.34 -202 715.68 -202 715 C-203.32 715 -204.64 715 -206 715 C-206 714.34 -206 713.68 -206 713 C-207.32 713 -208.64 713 -210 713 C-210 712.34 -210 711.68 -210 711 C-211.32 711 -212.64 711 -214 711 C-214 710.34 -214 709.68 -214 709 C-215.32 709 -216.64 709 -218 709 C-218 708.34 -218 707.68 -218 707 C-218.99 707 -219.98 707 -221 707 C-221 706.34 -221 705.68 -221 705 C-222.32 705 -223.64 705 -225 705 C-225 704.34 -225 703.68 -225 703 C-226.32 703 -227.64 703 -229 703 C-229 702.34 -229 701.68 -229 701 C-230.11375 700.9175 -231.2275 700.835 -232.375 700.75 C-236 700 -236 700 -237.4375 697.9375 C-237.623125 697.298125 -237.80875 696.65875 -238 696 C-239.32 696 -240.64 696 -242 696 C-242 695.34 -242 694.68 -242 694 C-243.32 694 -244.64 694 -246 694 C-246 693.34 -246 692.68 -246 692 C-247.32 692 -248.64 692 -250 692 C-250 691.34 -250 690.68 -250 690 C-251.32 690 -252.64 690 -254 690 C-254 689.34 -254 688.68 -254 688 C-254.99 688 -255.98 688 -257 688 C-257 687.34 -257 686.68 -257 686 C-257.66 686 -258.32 686 -259 686 C-259 685.34 -259 684.68 -259 684 C-260.32 684 -261.64 684 -263 684 C-263 683.34 -263 682.68 -263 682 C-263.7425 681.87625 -264.485 681.7525 -265.25 681.625 C-267.80141485 681.04513299 -269.7267573 680.26291261 -272 679 C-272 678.34 -272 677.68 -272 677 C-273.32 677 -274.64 677 -276 677 C-276 676.34 -276 675.68 -276 675 C-276.66 675 -277.32 675 -278 675 C-278 674.34 -278 673.68 -278 673 C-279.32 673 -280.64 673 -282 673 C-282 672.34 -282 671.68 -282 671 C-283.32 671 -284.64 671 -286 671 C-286 670.34 -286 669.68 -286 669 C-286.66 669 -287.32 669 -288 669 C-288 668.34 -288 667.68 -288 667 C-288.99 667 -289.98 667 -291 667 C-291 666.34 -291 665.68 -291 665 C-291.94875 664.690625 -292.8975 664.38125 -293.875 664.0625 C-297 663 -297 663 -299 662 C-299 661.34 -299 660.68 -299 660 C-300.32 660 -301.64 660 -303 660 C-303 659.34 -303 658.68 -303 658 C-304.32 658 -305.64 658 -307 658 C-307.33 656.68 -307.66 655.36 -308 654 C-308.66 654 -309.32 654 -310 654 C-310 653.34 -310 652.68 -310 652 C-311.32 652 -312.64 652 -314 652 C-314 651.34 -314 650.68 -314 650 C-314.66 650 -315.32 650 -316 650 C-316 649.34 -316 648.68 -316 648 C-316.70125 647.9175 -317.4025 647.835 -318.125 647.75 C-321.6903452 646.81990995 -324.09015572 645.23313631 -327 643 C-327 642.34 -327 641.68 -327 641 C-328.32 641 -329.64 641 -331 641 C-331 640.34 -331 639.68 -331 639 C-331.66 639 -332.32 639 -333 639 C-333 638.34 -333 637.68 -333 637 C-333.66 637 -334.32 637 -335 637 C-335 636.34 -335 635.68 -335 635 C-336.32 635 -337.64 635 -339 635 C-339 634.34 -339 633.68 -339 633 C-339.66 633 -340.32 633 -341 633 C-341 632.34 -341 631.68 -341 631 C-341.66 631 -342.32 631 -343 631 C-344.03251243 615.00135612 -344.14955992 599.03656813 -344.1343255 583.00904393 C-344.13174467 579.42883439 -344.13415506 575.84862704 -344.13571167 572.26841736 C-344.13751725 566.26170381 -344.13517009 560.25500267 -344.13037109 554.24829102 C-344.12493412 547.36480624 -344.12669362 540.48135113 -344.1321975 533.59786707 C-344.13677805 527.62350944 -344.13735524 521.64916059 -344.13475883 515.67480177 C-344.1332226 512.13482552 -344.13292731 508.59486306 -344.13629532 505.05488777 C-344.14927332 489.33919857 -343.95116711 473.6893761 -343 458 C-342.34 458 -341.68 458 -341 458 C-341 452.39 -341 446.78 -341 441 C-340.34 441 -339.68 441 -339 441 C-339 436.05 -339 431.1 -339 426 C-338.34 426 -337.68 426 -337 426 C-337 421.71 -337 417.42 -337 413 C-336.34 413 -335.68 413 -335 413 C-335 409.04 -335 405.08 -335 401 C-334.34 401 -333.68 401 -333 401 C-333 398.03 -333 395.06 -333 392 C-332.34 392 -331.68 392 -331 392 C-331 388.7 -331 385.4 -331 382 C-330.34 382 -329.68 382 -329 382 C-329 379.03 -329 376.06 -329 373 C-328.34 373 -327.68 373 -327 373 C-327.01160156 372.35933594 -327.02320313 371.71867187 -327.03515625 371.05859375 C-327.08883119 365.91346778 -326.88169578 361.06975076 -326 356 C-325.34 356 -324.68 356 -324 356 C-324 353.36 -324 350.72 -324 348 C-323.34 348 -322.68 348 -322 348 C-322 345.69 -322 343.38 -322 341 C-321.34 341 -320.68 341 -320 341 C-320 338.36 -320 335.72 -320 333 C-319.34 333 -318.68 333 -318 333 C-318 330.69 -318 328.38 -318 326 C-317.34 326 -316.68 326 -316 326 C-316 323.36 -316 320.72 -316 318 C-315.34 318 -314.68 318 -314 318 C-314 316.02 -314 314.04 -314 312 C-313.34 312 -312.68 312 -312 312 C-312 310.35 -312 308.7 -312 307 C-311.34 307 -310.68 307 -310 307 C-310 304.36 -310 301.72 -310 299 C-309.34 299 -308.68 299 -308 299 C-307.67 295.37 -307.34 291.74 -307 288 C-306.34 288 -305.68 288 -305 288 C-305 286.02 -305 284.04 -305 282 C-304.34 282 -303.68 282 -303 282 C-303 280.02 -303 278.04 -303 276 C-302.34 276 -301.68 276 -301 276 C-301 274.35 -301 272.7 -301 271 C-300.34 271 -299.68 271 -299 271 C-299 269.68 -299 268.36 -299 267 C-298.34 267 -297.68 267 -297 267 C-297 265.02 -297 263.04 -297 261 C-296.34 261 -295.68 261 -295 261 C-295 259.02 -295 257.04 -295 255 C-294.34 255 -293.68 255 -293 255 C-293 253.35 -293 251.7 -293 250 C-292.34 250 -291.68 250 -291 250 C-290.95101562 249.40832031 -290.90203125 248.81664062 -290.8515625 248.20703125 C-290.43543133 243.80895528 -289.95034405 240.03071103 -288 236 C-287.34 236 -286.68 236 -286 236 C-286 234.35 -286 232.7 -286 231 C-285.34 231 -284.68 231 -284 231 C-284 229.68 -284 228.36 -284 227 C-283.34 227 -282.68 227 -282 227 C-282 225.68 -282 224.36 -282 223 C-281.34 223 -280.68 223 -280 223 C-280 221.35 -280 219.7 -280 218 C-279.34 218 -278.68 218 -278 218 C-278 216.68 -278 215.36 -278 214 C-277.34 214 -276.68 214 -276 214 C-276 212.68 -276 211.36 -276 210 C-275.34 210 -274.68 210 -274 210 C-274 208.02 -274 206.04 -274 204 C-273.34 204 -272.68 204 -272 204 C-271.67 201.69 -271.34 199.38 -271 197 C-270.34 197 -269.68 197 -269 197 C-269 195.68 -269 194.36 -269 193 C-268.34 193 -267.68 193 -267 193 C-267 191.68 -267 190.36 -267 189 C-266.34 189 -265.68 189 -265 189 C-265 187.68 -265 186.36 -265 185 C-264.34 185 -263.68 185 -263 185 C-263 184.01 -263 183.02 -263 182 C-262.34 182 -261.68 182 -261 182 C-261 180.68 -261 179.36 -261 178 C-260.34 178 -259.68 178 -259 178 C-259 176.68 -259 175.36 -259 174 C-258.34 174 -257.68 174 -257 174 C-257 172.68 -257 171.36 -257 170 C-256.34 170 -255.68 170 -255 170 C-254.67 167.69 -254.34 165.38 -254 163 C-253.34 163 -252.68 163 -252 163 C-252 161.68 -252 160.36 -252 159 C-251.34 159 -250.68 159 -250 159 C-250 157.68 -250 156.36 -250 155 C-249.34 155 -248.68 155 -248 155 C-248 153.68 -248 152.36 -248 151 C-247.34 151 -246.68 151 -246 151 C-246 149.68 -246 148.36 -246 147 C-245.34 147 -244.68 147 -244 147 C-244 146.01 -244 145.02 -244 144 C-243.34 144 -242.68 144 -242 144 C-242 142.68 -242 141.36 -242 140 C-241.34 140 -240.68 140 -240 140 C-240 139.34 -240 138.68 -240 138 C-239.34 138 -238.68 138 -238 138 C-237.87625 136.9275 -237.7525 135.855 -237.625 134.75 C-237.10356064 131.62136385 -236.59911746 129.66519576 -235 127 C-234.34 127 -233.68 127 -233 127 C-233 126.34 -233 125.68 -233 125 C-232.34 125 -231.68 125 -231 125 C-231 123.68 -231 122.36 -231 121 C-230.34 121 -229.68 121 -229 121 C-229 119.68 -229 118.36 -229 117 C-228.34 117 -227.68 117 -227 117 C-227 115.68 -227 114.36 -227 113 C-226.34 113 -225.68 113 -225 113 C-225 112.34 -225 111.68 -225 111 C-224.34 111 -223.68 111 -223 111 C-223 110.01 -223 109.02 -223 108 C-222.34 108 -221.68 108 -221 108 C-221 106.68 -221 105.36 -221 104 C-220.34 104 -219.68 104 -219 104 C-218.67 102.02 -218.34 100.04 -218 98 C-217.34 98 -216.68 98 -216 98 C-216 97.34 -216 96.68 -216 96 C-215.34 96 -214.68 96 -214 96 C-214 95.01 -214 94.02 -214 93 C-213.34 93 -212.68 93 -212 93 C-212 91.68 -212 90.36 -212 89 C-211.34 89 -210.68 89 -210 89 C-210 88.34 -210 87.68 -210 87 C-209.34 87 -208.68 87 -208 87 C-208 85.68 -208 84.36 -208 83 C-207.34 83 -206.68 83 -206 83 C-206 82.34 -206 81.68 -206 81 C-205.34 81 -204.68 81 -204 81 C-204 79.68 -204 78.36 -204 77 C-203.34 76.67 -202.68 76.34 -202 76 C-201.34786708 73.97536745 -201.34786708 73.97536745 -201 72 C-200.34 72 -199.68 72 -199 72 C-199 71.34 -199 70.68 -199 70 C-198.34 70 -197.68 70 -197 70 C-197 68.68 -197 67.36 -197 66 C-196.34 66 -195.68 66 -195 66 C-195 65.34 -195 64.68 -195 64 C-194.34 64 -193.68 64 -193 64 C-193 63.34 -193 62.68 -193 62 C-192.34 62 -191.68 62 -191 62 C-191 61.34 -191 60.68 -191 60 C-189.68 60 -188.36 60 -187 60 C-187 59.34 -187 58.68 -187 58 C-182.545 57.505 -182.545 57.505 -178 57 C-178 56.34 -178 55.68 -178 55 C-176.68 55 -175.36 55 -174 55 C-174 54.34 -174 53.68 -174 53 C-172.68 53 -171.36 53 -170 53 C-170 52.34 -170 51.68 -170 51 C-167.03 50.34 -164.06 49.68 -161 49 C-161 48.34 -161 47.68 -161 47 C-159.02 47 -157.04 47 -155 47 C-155 46.34 -155 45.68 -155 45 C-153.68 45 -152.36 45 -151 45 C-151 44.34 -151 43.68 -151 43 C-149.35 43 -147.7 43 -146 43 C-146 42.34 -146 41.68 -146 41 C-142.7 40.67 -139.4 40.34 -136 40 C-136 39.34 -136 38.68 -136 38 C-134.02 38 -132.04 38 -130 38 C-130 37.34 -130 36.68 -130 36 C-129.01 36 -128.02 36 -127 36 C-127 35.34 -127 34.68 -127 34 C-125.02 34 -123.04 34 -121 34 C-121 33.34 -121 32.68 -121 32 C-119.02 32 -117.04 32 -115 32 C-115 31.34 -115 30.68 -115 30 C-113.35 30 -111.7 30 -110 30 C-110 29.34 -110 28.68 -110 28 C-108.02 28 -106.04 28 -104 28 C-104 27.34 -104 26.68 -104 26 C-102.02 26 -100.04 26 -98 26 C-98 25.34 -98 24.68 -98 24 C-96.35 24 -94.7 24 -93 24 C-93 23.34 -93 22.68 -93 22 C-88.38 21.67 -83.76 21.34 -79 21 C-79 20.34 -79 19.68 -79 19 C-76.69 19 -74.38 19 -72 19 C-72 18.34 -72 17.68 -72 17 C-70.02 17 -68.04 17 -66 17 C-66 16.34 -66 15.68 -66 15 C-63.36 15 -60.72 15 -58 15 C-58 14.34 -58 13.68 -58 13 C-55.69 13 -53.38 13 -51 13 C-51 12.34 -51 11.68 -51 11 C-48.36 11 -45.72 11 -43 11 C-43 10.34 -43 9.68 -43 9 C-40.69 9 -38.38 9 -36 9 C-36 8.34 -36 7.68 -36 7 C-33.36 7 -30.72 7 -28 7 C-28 6.34 -28 5.68 -28 5 C-21.61773055 4.17648136 -15.43255401 3.87913782 -9 4 C-9 3.34 -9 2.68 -9 2 C-6.03 2 -3.06 2 0 2 C0 1.34 0 0.68 0 0 Z M-25 319 C-25 319.66 -25 320.32 -25 321 C-27.64 321 -30.28 321 -33 321 C-33 321.66 -33 322.32 -33 323 C-34.98 323 -36.96 323 -39 323 C-39 323.66 -39 324.32 -39 325 C-43.455 325.495 -43.455 325.495 -48 326 C-48 326.66 -48 327.32 -48 328 C-49.32 328 -50.64 328 -52 328 C-52 328.66 -52 329.32 -52 330 C-52.66 330 -53.32 330 -54 330 C-54 330.66 -54 331.32 -54 332 C-55.32 332 -56.64 332 -58 332 C-60.45705696 334.59987203 -60.45705696 334.59987203 -61 338 C-62.32 338 -63.64 338 -65 338 C-65 338.66 -65 339.32 -65 340 C-65.66 340 -66.32 340 -67 340 C-67 340.66 -67 341.32 -67 342 C-68.32 342.33 -69.64 342.66 -71 343 C-71 343.66 -71 344.32 -71 345 C-71.66 345 -72.32 345 -73 345 C-73 345.66 -73 346.32 -73 347 C-73.66 347 -74.32 347 -75 347 C-76.07525194 349.65228812 -77.09456151 352.28368454 -78 355 C-78.66 355 -79.32 355 -80 355 C-80 356.32 -80 357.64 -80 359 C-80.66 359 -81.32 359 -82 359 C-82 359.66 -82 360.32 -82 361 C-82.66 361 -83.32 361 -84 361 C-84 361.99 -84 362.98 -84 364 C-84.66 364 -85.32 364 -86 364 C-86 365.32 -86 366.64 -86 368 C-86.66 368 -87.32 368 -88 368 C-88 369.32 -88 370.64 -88 372 C-88.66 372 -89.32 372 -90 372 C-90 373.32 -90 374.64 -90 376 C-90.66 376 -91.32 376 -92 376 C-92 377.65 -92 379.3 -92 381 C-92.66 381 -93.32 381 -94 381 C-94.95261487 385.76307437 -95.08333357 390.1666528 -95 395 C-95.66 395 -96.32 395 -97 395 C-97 399.95 -97 404.9 -97 410 C-97.66 410 -98.32 410 -99 410 C-99 414.62 -99 419.24 -99 424 C-98.34 424 -97.68 424 -97 424 C-97.01160156 424.92683594 -97.02320313 425.85367188 -97.03515625 426.80859375 C-97.04417969 428.00613281 -97.05320312 429.20367188 -97.0625 430.4375 C-97.07410156 431.63246094 -97.08570313 432.82742188 -97.09765625 434.05859375 C-97.33901792 436.88873341 -97.33901792 436.88873341 -96 438 C-95.60333773 440.18019479 -95.25684763 442.3696463 -94.9375 444.5625 C-94.76089844 445.76003906 -94.58429688 446.95757813 -94.40234375 448.19140625 C-94.26957031 449.11824219 -94.13679687 450.04507813 -94 451 C-93.34 451 -92.68 451 -92 451 C-92 452.65 -92 454.3 -92 456 C-91.34 456 -90.68 456 -90 456 C-90 457.32 -90 458.64 -90 460 C-89.34 460 -88.68 460 -88 460 C-88 461.32 -88 462.64 -88 464 C-87.34 464 -86.68 464 -86 464 C-86 465.32 -86 466.64 -86 468 C-85.34 468 -84.68 468 -84 468 C-83.855625 468.598125 -83.71125 469.19625 -83.5625 469.8125 C-83.1127561 471.56150404 -82.57107659 473.28677023 -82 475 C-81.34 475 -80.68 475 -80 475 C-80 475.66 -80 476.32 -80 477 C-79.34 477 -78.68 477 -78 477 C-78 477.66 -78 478.32 -78 479 C-77.34 479 -76.68 479 -76 479 C-75.9175 479.928125 -75.835 480.85625 -75.75 481.8125 C-75.28925981 485.05789068 -75.28925981 485.05789068 -73.0625 486.875 C-71.09892952 488.15961738 -71.09892952 488.15961738 -69 488 C-69 488.66 -69 489.32 -69 490 C-68.34 490 -67.68 490 -67 490 C-67 490.66 -67 491.32 -67 492 C-66.34 492 -65.68 492 -65 492 C-65 492.66 -65 493.32 -65 494 C-64.34 494 -63.68 494 -63 494 C-63 494.66 -63 495.32 -63 496 C-62.34 496 -61.68 496 -61 496 C-61 496.66 -61 497.32 -61 498 C-60.01 498 -59.02 498 -58 498 C-58 498.66 -58 499.32 -58 500 C-57.34 500 -56.68 500 -56 500 C-56 500.66 -56 501.32 -56 502 C-54.68 502 -53.36 502 -52 502 C-52 502.66 -52 503.32 -52 504 C-50.73160474 504.50615298 -49.46016898 505.00469099 -48.1875 505.5 C-47.47980469 505.7784375 -46.77210938 506.056875 -46.04296875 506.34375 C-43.88158784 507.1529162 -43.88158784 507.1529162 -41 507 C-41 507.66 -41 508.32 -41 509 C-39.02 509 -37.04 509 -35 509 C-35 509.66 -35 510.32 -35 511 C-33.02 511 -31.04 511 -29 511 C-29 511.66 -29 512.32 -29 513 C-26.03 513 -23.06 513 -20 513 C-20 513.66 -20 514.32 -20 515 C-14.06 515 -8.12 515 -2 515 C-2 514.34 -2 513.68 -2 513 C1.96 513 5.92 513 10 513 C10 512.34 10 511.68 10 511 C11.65 511 13.3 511 15 511 C15 510.34 15 509.68 15 509 C16.98 509 18.96 509 21 509 C21 508.34 21 507.68 21 507 C22.32 507 23.64 507 25 507 C25 506.34 25 505.68 25 505 C27.31 504.67 29.62 504.34 32 504 C32 503.34 32 502.68 32 502 C32.66 502 33.32 502 34 502 C34 501.34 34 500.68 34 500 C35.32 500 36.64 500 38 500 C38 499.34 38 498.68 38 498 C38.66 498 39.32 498 40 498 C40 497.34 40 496.68 40 496 C40.66 496 41.32 496 42 496 C42 495.34 42 494.68 42 494 C42.66 494 43.32 494 44 494 C44 493.34 44 492.68 44 492 C44.66 492 45.32 492 46 492 C46 491.34 46 490.68 46 490 C46.66 490 47.32 490 48 490 C50.66666667 487.66666667 50.66666667 487.66666667 53 485 C53 484.34 53 483.68 53 483 C53.66 483 54.32 483 55 483 C55 482.34 55 481.68 55 481 C55.66 481 56.32 481 57 481 C57 479.68 57 478.36 57 477 C57.66 477 58.32 477 59 477 C59 476.34 59 475.68 59 475 C59.66 475 60.32 475 61 475 C61 473.68 61 472.36 61 471 C61.66 471 62.32 471 63 471 C63 470.34 63 469.68 63 469 C63.66 469 64.32 469 65 469 C65 468.01 65 467.02 65 466 C65.66 466 66.32 466 67 466 C67.33 462.7 67.66 459.4 68 456 C68.66 456 69.32 456 70 456 C70 454.68 70 453.36 70 452 C70.66 452 71.32 452 72 452 C72 450.35 72 448.7 72 447 C72.66 447 73.32 447 74 447 C74 444.36 74 441.72 74 439 C74.66 439 75.32 439 76 439 C76 435.37 76 431.74 76 428 C76.66 428 77.32 428 78 428 C78 420.08 78 412.16 78 404 C77.34 404 76.68 404 76 404 C76 400.37 76 396.74 76 393 C75.34 393 74.68 393 74 393 C74 390.36 74 387.72 74 385 C73.34 385 72.68 385 72 385 C72 383.02 72 381.04 72 379 C71.34 379 70.68 379 70 379 C70 377.35 70 375.7 70 374 C69.34 374 68.68 374 68 374 C67.67 371.36 67.34 368.72 67 366 C66.34 366 65.68 366 65 366 C65 364.68 65 363.36 65 362 C64.01 361.34 63.02 360.68 62 360 C61.67 359.01 61.34 358.02 61 357 C60.34 357 59.68 357 59 357 C59 356.34 59 355.68 59 355 C58.34 355 57.68 355 57 355 C57 353.68 57 352.36 57 351 C56.34 351 55.68 351 55 351 C55 350.34 55 349.68 55 349 C54.34 349 53.68 349 53 349 C53 348.34 53 347.68 53 347 C52.34 347 51.68 347 51 347 C51 346.34 51 345.68 51 345 C50.34 345 49.68 345 49 345 C48.67 344.01 48.34 343.02 48 342 C47.34 342 46.68 342 46 342 C46 341.34 46 340.68 46 340 C45.34 340 44.68 340 44 340 C44 339.34 44 338.68 44 338 C43.34 338 42.68 338 42 338 C42 337.34 42 336.68 42 336 C40.68 336 39.36 336 38 336 C38 335.34 38 334.68 38 334 C37.34 334 36.68 334 36 334 C36 333.34 36 332.68 36 332 C34.68 332 33.36 332 32 332 C31.67 330.68 31.34 329.36 31 328 C29.68 328 28.36 328 27 328 C27 327.34 27 326.68 27 326 C26.36191406 325.86722656 25.72382812 325.73445313 25.06640625 325.59765625 C24.24011719 325.42105469 23.41382813 325.24445313 22.5625 325.0625 C21.73878906 324.88847656 20.91507813 324.71445312 20.06640625 324.53515625 C18 324 18 324 17 323 C15.33382885 322.95936168 13.66611905 322.957279 12 323 C12 322.34 12 321.68 12 321 C9.36 321 6.72 321 4 321 C4 320.34 4 319.68 4 319 C-5.57 319 -15.14 319 -25 319 Z M308 319 C308 319.66 308 320.32 308 321 C307.41992188 320.97679687 306.83984375 320.95359375 306.2421875 320.9296875 C301.38588834 320.81749577 297.57067605 321.12485085 293 323 C293 323.66 293 324.32 293 325 C290.36 325.33 287.72 325.66 285 326 C285 326.66 285 327.32 285 328 C283.68 328 282.36 328 281 328 C281 328.66 281 329.32 281 330 C280.01 330 279.02 330 278 330 C278 330.66 278 331.32 278 332 C277.34 332 276.68 332 276 332 C276 332.66 276 333.32 276 334 C274.68 334 273.36 334 272 334 C272 334.66 272 335.32 272 336 C271.34 336 270.68 336 270 336 C270 336.66 270 337.32 270 338 C269.34 338 268.68 338 268 338 C268 338.66 268 339.32 268 340 C267.34 340 266.68 340 266 340 C266 340.66 266 341.32 266 342 C265.01 342.33 264.02 342.66 263 343 C263 343.66 263 344.32 263 345 C262.34 345 261.68 345 261 345 C261 345.66 261 346.32 261 347 C260.34 347 259.68 347 259 347 C259 347.66 259 348.32 259 349 C258.34 349 257.68 349 257 349 C257 349.66 257 350.32 257 351 C256.34 351 255.68 351 255 351 C255 351.66 255 352.32 255 353 C254.34 353 253.68 353 253 353 C253 354.32 253 355.64 253 357 C252.34 357 251.68 357 251 357 C251 357.66 251 358.32 251 359 C250.34 359 249.68 359 249 359 C249 359.99 249 360.98 249 362 C248.34 362 247.68 362 247 362 C247 363.32 247 364.64 247 366 C246.34 366 245.68 366 245 366 C244.67 368.64 244.34 371.28 244 374 C243.34 374 242.68 374 242 374 C242 375.32 242 376.64 242 378 C241.34 378 240.68 378 240 378 C240 379.65 240 381.3 240 383 C239.34 383 238.68 383 238 383 C238 385.64 238 388.28 238 391 C237.34 391 236.68 391 236 391 C236 393.97 236 396.94 236 400 C235.34 400 234.68 400 234 400 C233.97534712 404.68139254 233.95716261 409.36274759 233.94506836 414.04418945 C233.94002843 415.63794614 233.9331965 417.23169819 233.92456055 418.82543945 C233.91248001 421.11150253 233.90676845 423.39750467 233.90234375 425.68359375 C233.89718246 426.40026718 233.89202118 427.11694061 233.88670349 427.85533142 C233.88650737 429.57063672 233.93807993 431.28581266 234 433 C234.33 433.33 234.66 433.66 235 434 C235.23192865 435.51469448 235.41215238 437.03754562 235.5625 438.5625 C235.64628906 439.38878906 235.73007812 440.21507812 235.81640625 441.06640625 C235.87699219 441.70449219 235.93757812 442.34257813 236 443 C236.66 443 237.32 443 238 443 C238 444.98 238 446.96 238 449 C238.66 449 239.32 449 240 449 C240 450.65 240 452.3 240 454 C240.66 454 241.32 454 242 454 C242 455.98 242 457.96 242 460 C242.66 460 243.32 460 244 460 C244.16276042 462.01822917 244.32552083 464.03645833 244.48828125 466.0546875 C244.87393036 468.39519216 244.87393036 468.39519216 248 470 C248.33 470.99 248.66 471.98 249 473 C249.66 473 250.32 473 251 473 C251 474.32 251 475.64 251 477 C251.66 477 252.32 477 253 477 C253 477.66 253 478.32 253 479 C253.66 479 254.32 479 255 479 C255 479.66 255 480.32 255 481 C255.66 481 256.32 481 257 481 C257 482.32 257 483.64 257 485 C258.94125344 486.73473712 260.94272868 488.4045651 263 490 C263.495 490.99 263.495 490.99 264 492 C264.66 492 265.32 492 266 492 C266 492.66 266 493.32 266 494 C267.32 494 268.64 494 270 494 C270 494.66 270 495.32 270 496 C270.66 496 271.32 496 272 496 C272 496.66 272 497.32 272 498 C272.66 498 273.32 498 274 498 C274 498.66 274 499.32 274 500 C275.32 500 276.64 500 278 500 C278 500.66 278 501.32 278 502 C278.66 502 279.32 502 280 502 C280 502.66 280 503.32 280 504 C282.31 504.33 284.62 504.66 287 505 C287 505.66 287 506.32 287 507 C288.32 507 289.64 507 291 507 C291 507.66 291 508.32 291 509 C294.82320557 510.42258812 297.91281305 511.24042276 302 511 C302 511.66 302 512.32 302 513 C305.96 513 309.92 513 314 513 C314 513.66 314 514.32 314 515 C319.28 515 324.56 515 330 515 C330 514.34 330 513.68 330 513 C333.63 513 337.26 513 341 513 C341 512.34 341 511.68 341 511 C342.98 511 344.96 511 347 511 C347 510.34 347 509.68 347 509 C348.98 509 350.96 509 353 509 C353 508.34 353 507.68 353 507 C353.99 507 354.98 507 356 507 C356 506.34 356 505.68 356 505 C358.64 504.67 361.28 504.34 364 504 C364 503.34 364 502.68 364 502 C365.32 502 366.64 502 368 502 C368 501.34 368 500.68 368 500 C368.66 500 369.32 500 370 500 C372.39820305 497.36315253 372.39820305 497.36315253 373 494 C374.32 494 375.64 494 377 494 C377 493.34 377 492.68 377 492 C377.66 492 378.32 492 379 492 C379 491.34 379 490.68 379 490 C379.66 490 380.32 490 381 490 C381 489.34 381 488.68 381 488 C381.66 488 382.32 488 383 488 C383 487.34 383 486.68 383 486 C383.66 486 384.32 486 385 486 C385 485.01 385 484.02 385 483 C385.66 483 386.32 483 387 483 C389.74375671 480.04518508 390 479.22528092 390 475 C390.66 475 391.32 475 392 475 C392 474.34 392 473.68 392 473 C392.66 473 393.32 473 394 473 C394 471.68 394 470.36 394 469 C394.66 469 395.32 469 396 469 C396 468.01 396 467.02 396 466 C396.66 466 397.32 466 398 466 C398 464.68 398 463.36 398 462 C398.66 462 399.32 462 400 462 C400 460.68 400 459.36 400 458 C400.66 458 401.32 458 402 458 C402 456.68 402 455.36 402 454 C402.66 454 403.32 454 404 454 C404 452.35 404 450.7 404 449 C404.66 449 405.32 449 406 449 C406.8320582 443.27959989 407.12036664 437.77759884 407 432 C407.66 432 408.32 432 409 432 C409 420.78 409 409.56 409 398 C408.34 398 407.68 398 407 398 C407.01740234 397.12988281 407.01740234 397.12988281 407.03515625 396.2421875 C407.08762174 391.7001754 406.91751063 387.47286431 406 383 C405.34 383 404.68 383 404 383 C404 381.35 404 379.7 404 378 C403.34 378 402.68 378 402 378 C402 376.68 402 375.36 402 374 C401.34 374 400.68 374 400 374 C400 372.02 400 370.04 400 368 C399.34 368 398.68 368 398 368 C398 366.68 398 365.36 398 364 C397.34 364 396.68 364 396 364 C396 363.34 396 362.68 396 362 C395.34 362 394.68 362 394 362 C393.896875 361.443125 393.79375 360.88625 393.6875 360.3125 C392.85821592 357.5230899 391.65700944 355.3860936 390 353 C389.34 353 388.68 353 388 353 C387.67 351.68 387.34 350.36 387 349 C386.34 349 385.68 349 385 349 C385 348.34 385 347.68 385 347 C384.34 347 383.68 347 383 347 C383 346.34 383 345.68 383 345 C382.34 345 381.68 345 381 345 C381 344.34 381 343.68 381 343 C378.36315253 340.60179695 378.36315253 340.60179695 375 340 C375 339.34 375 338.68 375 338 C374.34 338 373.68 338 373 338 C373 337.34 373 336.68 373 336 C372.34 336 371.68 336 371 336 C371 335.34 371 334.68 371 334 C370.01 334 369.02 334 368 334 C368 333.34 368 332.68 368 332 C367.34 332 366.68 332 366 332 C366 331.34 366 330.68 366 330 C364.68 330 363.36 330 362 330 C362 329.34 362 328.68 362 328 C360.68 328 359.36 328 358 328 C358 327.34 358 326.68 358 326 C355.69 325.67 353.38 325.34 351 325 C351 324.34 351 323.68 351 323 C349.02 323 347.04 323 345 323 C345 322.34 345 321.68 345 321 C341.7 321 338.4 321 335 321 C335 320.34 335 319.68 335 319 C326.09 319 317.18 319 308 319 Z " fill="#FEFEFE" transform="translate(544,321)"/>
</svg>
