<?xml version="1.0" encoding="UTF-8"?>
<svg version="1.1" xmlns="http://www.w3.org/2000/svg" width="1500" height="1500">
<path d="M0 0 C1.41027019 0.20102636 2.82059159 0.40169379 4.23095703 0.60205078 C53.4764421 7.68992461 101.81897694 21.71097363 145.97851562 44.94433594 C148.27242874 46.14226834 150.58097448 47.30927189 152.890625 48.4765625 C189.22578553 66.97963809 225.67058632 91.5812882 254.07666016 121.07958984 C255.90415488 122.90430087 257.79185007 124.57377563 259.76171875 126.2421875 C263.9291894 129.86304956 267.69924491 133.75543709 271.4375 137.8125 C272.08928223 138.51463623 272.74106445 139.21677246 273.41259766 139.94018555 C275.27994594 141.95568824 277.14101443 143.97678567 279 146 C279.87527344 146.94875 280.75054688 147.8975 281.65234375 148.875 C286.99705588 154.73633633 292.06328985 160.79206748 297 167 C297.44230957 167.54849609 297.88461914 168.09699219 298.34033203 168.66210938 C314.88302806 189.25619452 329.47604783 211.76289501 342 235 C342.48339844 235.88075195 342.96679688 236.76150391 343.46484375 237.66894531 C394.49451009 330.81465445 408.56825237 441.53224448 379.96875 579.375 C364.58071247 631.84568534 341.10675165 682.92913789 307.37304688 726.22998047 C306.05051504 727.93488014 304.74863217 729.653416 303.453125 731.37890625 C294.60791543 743.11767042 284.94321513 754.1821502 275 765 C274.45472656 765.59570801 273.90945313 766.19141602 273.34765625 766.80517578 C265.24203337 775.64074051 256.97856749 784.05114235 248 792 C246.16632242 793.66628792 244.33297005 795.33293381 242.5 797 C234.77941176 804 234.77941176 804 232 804 C231.67 804.99 231.34 805.98 231 807 C229.61157227 808.32763672 229.61157227 808.32763672 227.81640625 809.6796875 C227.14561035 810.18959229 226.47481445 810.69949707 225.78369141 811.22485352 C225.05069824 811.76940186 224.31770508 812.3139502 223.5625 812.875 C222.80114746 813.44726318 222.03979492 814.01952637 221.25537109 814.60913086 C218.84353442 816.41516829 216.42266754 818.20852553 214 820 C213.25379395 820.55606934 212.50758789 821.11213867 211.73876953 821.68505859 C149.71093463 867.82453162 77.2594655 896.06398706 1 907 C-0.23395508 907.17934082 -1.46791016 907.35868164 -2.73925781 907.54345703 C-40.53253231 912.73268902 -81.27886733 912.55779993 -119 907 C-120.41174988 906.79907758 -121.82353535 906.59840502 -123.23535156 906.39794922 C-166.80966879 900.1267105 -208.88200953 888.24042239 -249 870 C-249.91201172 869.59072266 -250.82402344 869.18144531 -251.76367188 868.75976562 C-286.77473694 852.97046177 -319.78514977 831.80717118 -349.2734375 807.21875 C-351.27630552 805.58890897 -353.28620502 804.01513223 -355.3515625 802.46875 C-360.66534004 798.49015262 -365.6361154 794.71844275 -369.75 789.44140625 C-371.11879904 787.73199867 -371.11879904 787.73199867 -373.9375 786.0625 C-377.35567395 783.76046448 -379.58006023 781.20700531 -382.21484375 778.07421875 C-383.90044062 776.11568059 -385.6530954 774.30558682 -387.5 772.5 C-390.51754516 769.52929035 -393.30589228 766.42026554 -396.06640625 763.2109375 C-398.24595981 760.7187611 -400.4977328 758.30161332 -402.75 755.875 C-407.9915491 750.11957354 -412.78918983 744.08250132 -417.52734375 737.90966797 C-419.03708 735.95191648 -420.5640426 734.00858152 -422.09375 732.06640625 C-434.25418953 716.52899613 -445.15984854 700.0978807 -455 683 C-455.3697998 682.36723145 -455.73959961 681.73446289 -456.12060547 681.08251953 C-496.01855064 612.62108132 -516.29221892 533.8288919 -516.1875 454.75 C-516.18656342 453.82903534 -516.18562683 452.90807068 -516.18466187 451.959198 C-516.07484062 401.8509565 -508.25488099 352.44777474 -492 305 C-491.61086426 303.86272461 -491.22172852 302.72544922 -490.82080078 301.55371094 C-472.82084483 249.65543565 -445.17930242 202.07720486 -410 160 C-409.56494141 159.47857422 -409.12988281 158.95714844 -408.68164062 158.41992188 C-396.16215964 143.46364488 -382.97464542 128.56564126 -368.140625 115.86328125 C-365.66813514 113.71113223 -363.27728643 111.48019281 -360.875 109.25 C-355.05649253 103.94583574 -348.93505861 99.10725726 -342.69384766 94.31298828 C-341.17059563 93.13223743 -339.66787481 91.92511278 -338.16796875 90.71484375 C-321.35184371 77.30335141 -302.77659685 65.46130499 -284 55 C-283.13971191 54.51257324 -282.27942383 54.02514648 -281.39306641 53.52294922 C-231.47965234 25.30197253 -176.66997484 8.02040176 -120 0 C-118.87899902 -0.16516113 -117.75799805 -0.33032227 -116.60302734 -0.50048828 C-78.75384485 -5.84904293 -37.78824522 -5.59211766 0 0 Z M-247.1875 255.6875 C-247.9822171 255.76759308 -248.7769342 255.84768616 -249.59573364 255.9302063 C-276.44550361 258.6663783 -303.31660509 262.53489143 -329.8125 267.6875 C-331.20456665 267.95421509 -331.20456665 267.95421509 -332.62475586 268.22631836 C-345.84007252 270.96633816 -356.37031217 276.41913836 -364.4296875 287.49609375 C-371.01749403 298.00053153 -373.57012713 309.04448172 -370.875 321.25 C-367.34868135 333.32208186 -360.50341054 342.58456229 -349.49609375 348.75 C-335.33164487 355.84330774 -322.62043369 354.22931446 -307.60220337 351.29382324 C-275.32229743 345.02180328 -242.79940353 341.19296679 -210 339 C-209.3138562 338.95194214 -208.6277124 338.90388428 -207.92077637 338.85437012 C-192.00666041 337.76380653 -176.06945956 337.75605848 -160.125 337.75 C-159.41289745 337.74941086 -158.70079491 337.74882172 -157.96711349 337.74821472 C-132.21702462 337.73323017 -106.64693382 338.56040229 -81 341 C-79.87371185 341.10538086 -79.87371185 341.10538086 -78.72467041 341.21289062 C-1.63787226 348.48791603 74.82365809 367.20753853 221.42578125 430.265625 C232.11682189 435.45340866 243.58776992 434.77390823 254.6875 431 C266.7713435 425.96750343 275.06044893 415.87927247 280 404 C283.49989147 393.24298063 282.08584374 382.92329901 277.4453125 372.75390625 C269.9186947 358.41264801 257.4878823 352.27648848 243.5 345.4375 C242.61252075 344.99935974 241.7250415 344.56121948 240.81066895 344.10980225 C224.10194377 335.8610252 207.23493763 328.08395577 190 321 C189.32547791 320.72236816 188.65095581 320.44473633 187.95599365 320.15869141 C109.0159512 287.76683119 25.95214929 266.20957159 -69.0625 255.8125 C-69.81545349 255.73359528 -70.56840698 255.65469055 -71.34417725 255.57339478 C-98.85219892 252.72603353 -126.39131623 251.65413568 -154.03173828 251.73925781 C-157.7550231 251.75065116 -161.47802166 251.74384849 -165.20129681 251.73237896 C-192.60078144 251.66098703 -219.92253247 252.8815805 -247.1875 255.6875 Z M-231.80206299 412.74676514 C-234.1143812 413.01317841 -236.42784446 413.26731845 -238.74169922 413.52001953 C-257.17417169 415.55483955 -275.4506411 418.26208281 -293.6875 421.625 C-294.47955841 421.77102661 -295.27161682 421.91705322 -296.087677 422.06750488 C-319.82740268 425.82928339 -319.82740268 425.82928339 -338.53125 439.84765625 C-344.062109 447.95271824 -345.88260487 456.30395504 -345 466 C-342.79189042 475.69705956 -337.77475294 483.55960787 -329.6875 489.375 C-317.12785795 497.05152146 -305.21133142 495.0720831 -291.51217651 492.29382324 C-252.42381478 484.41248858 -212.88966045 479.76101101 -173 479 C-171.93491211 478.97808594 -170.86982422 478.95617187 -169.77246094 478.93359375 C-90.26848366 477.54000957 -11.03403381 490.50380085 155.97070312 556.08422852 C157.08181709 556.6508168 157.08181709 556.6508168 158.21537781 557.22885132 C159.59554122 557.93269397 160.97249202 558.64289208 162.34529114 559.36099243 C171.3784416 563.94833221 179.57257023 565.10263035 189.4375 562.375 C195.23715677 560.47946998 199.58158363 558.19597894 204 554 C204.55300781 553.47535156 205.10601563 552.95070313 205.67578125 552.41015625 C211.3218334 546.45588289 214.50451937 538.59168426 215.09765625 530.41796875 C214.64851448 519.29721858 210.03532811 510.52519811 202.24462891 502.87133789 C197.73509953 499.11176179 192.50267228 496.56737951 187.3125 493.875 C186.06389881 493.21895705 184.815365 492.56278584 183.56689453 491.90649414 C150.97065139 474.88184856 116.81611822 460.7882492 82 449 C80.80971191 448.59330078 79.61942383 448.18660156 78.39306641 447.76757812 C21.59699398 428.47692642 -37.16634688 417.17097984 -96.83984375 411.76171875 C-97.53018204 411.69846909 -98.22052032 411.63521942 -98.93177795 411.5700531 C-112.0078453 410.42472418 -125.03426687 409.83494796 -138.16015625 409.796875 C-139.66781137 409.78985178 -141.17546619 409.78276497 -142.68312073 409.77561951 C-147.47625151 409.75621764 -152.26933391 409.75118503 -157.0625 409.75 C-157.8796624 409.74955814 -158.6968248 409.74911629 -159.53874969 409.74866104 C-183.72209105 409.74180427 -207.74997679 409.95948358 -231.80206299 412.74676514 Z M-225 554 C-226.09199707 554.1308197 -226.09199707 554.1308197 -227.20605469 554.26428223 C-248.33535651 556.82495676 -269.21117315 560.43230474 -290 565 C-290.86141602 565.1841748 -291.72283203 565.36834961 -292.61035156 565.55810547 C-303.05135809 567.82644622 -310.21973877 570.69655888 -316.4375 579.6875 C-320.41448902 585.96182328 -320.76695138 591.68720773 -320 599 C-317.31629184 607.87881019 -311.54606677 613.23670451 -303.8125 617.9375 C-293.80292626 620.72705334 -283.81622008 618.64181784 -273.91693115 616.29354858 C-248.360756 610.27289414 -222.19905549 606.64435449 -196 605 C-195.36848022 604.95869965 -194.73696045 604.91739929 -194.08630371 604.87484741 C-182.67722887 604.13721171 -171.30727047 603.79652384 -159.875 603.8125 C-159.06084625 603.81310425 -158.2466925 603.8137085 -157.40786743 603.81433105 C-71.57591444 603.98493596 13.91978394 623.74403584 106.2265625 670.96875 C108.15075126 671.97971959 110.07520283 672.99018925 112 674 C112.78938965 674.41580322 113.5787793 674.83160645 114.39208984 675.26000977 C121.33062402 678.84017768 126.60438312 679.88165633 134.1875 677.8125 C142.05219327 675.10179428 148.04085849 670.43063422 152.04296875 663.0859375 C154.93567992 656.26837408 154.9008142 649.90519631 152.5 642.9375 C147.44186706 631.97130652 137.51197571 627.06853445 127.25 621.8125 C125.81896987 621.06785476 124.38814627 620.32281251 122.95751953 619.57739258 C52.03003607 582.83001678 -24.20915107 560.7538171 -114 552 C-115.13912842 551.90428711 -116.27825684 551.80857422 -117.4519043 551.70996094 C-130.84551833 550.72066494 -144.26355204 550.75634783 -157.6875 550.75 C-159.61542892 550.74898788 -159.61542892 550.74898788 -161.58230591 550.74795532 C-182.86260038 550.76563836 -203.86943962 551.45322927 -225 554 Z " fill="#FFFFFF" transform="translate(810,297)"/>
</svg>
